<mxfile host="app.diagrams.net" modified="2021-07-08T16:27:32.856Z" agent="5.0 (Windows NT 10.0; Win64; x64) AppleWebKit/537.36 (KHTML, like Gecko) Chrome/91.0.4472.124 Safari/537.36" etag="JIciLf6GqXom-yy3r1f_" version="14.8.5" type="github">
  <diagram id="C5RBs43oDa-KdzZeNtuy" name="Page-1">
    <mxGraphModel dx="1019" dy="555" grid="1" gridSize="10" guides="1" tooltips="1" connect="1" arrows="1" fold="1" page="1" pageScale="1" pageWidth="1169" pageHeight="827" math="0" shadow="0">
      <root>
        <mxCell id="WIyWlLk6GJQsqaUBKTNV-0" />
        <mxCell id="WIyWlLk6GJQsqaUBKTNV-1" parent="WIyWlLk6GJQsqaUBKTNV-0" />
        <mxCell id="WIyWlLk6GJQsqaUBKTNV-3" value="Start" style="rounded=1;whiteSpace=wrap;html=1;fontSize=12;glass=0;strokeWidth=1;shadow=0;fillColor=#6a00ff;strokeColor=#3700CC;fontColor=#ffffff;gradientColor=#000099;" parent="WIyWlLk6GJQsqaUBKTNV-1" vertex="1">
          <mxGeometry x="645" y="170" width="90" height="30" as="geometry" />
        </mxCell>
        <mxCell id="WIyWlLk6GJQsqaUBKTNV-10" value="&lt;span style=&quot;color: rgb(255 , 255 , 255)&quot;&gt;Apakah Kualitas air baik?&lt;/span&gt;" style="rhombus;whiteSpace=wrap;html=1;shadow=0;fontFamily=Helvetica;fontSize=12;align=center;strokeWidth=1;spacing=6;spacingTop=-4;fontColor=#000000;fillColor=#6A00FF;gradientColor=#0000CC;strokeColor=#0000CC;" parent="WIyWlLk6GJQsqaUBKTNV-1" vertex="1">
          <mxGeometry x="620" y="300" width="140" height="70" as="geometry" />
        </mxCell>
        <mxCell id="bDoUtLGQbt2k-Oi-LWWi-0" value="Mesin Hidup" style="rounded=0;whiteSpace=wrap;html=1;fillColor=#6a00ff;strokeColor=#3700CC;fontColor=#ffffff;gradientColor=#0000CC;" vertex="1" parent="WIyWlLk6GJQsqaUBKTNV-1">
          <mxGeometry x="631" y="466" width="120" height="60" as="geometry" />
        </mxCell>
        <mxCell id="bDoUtLGQbt2k-Oi-LWWi-27" value="End" style="ellipse;whiteSpace=wrap;html=1;strokeColor=#0000CC;fillColor=#6A00FF;gradientColor=#0000CC;" vertex="1" parent="WIyWlLk6GJQsqaUBKTNV-1">
          <mxGeometry x="700" y="1290" width="95" height="30" as="geometry" />
        </mxCell>
        <mxCell id="bDoUtLGQbt2k-Oi-LWWi-30" value="" style="rounded=0;html=1;jettySize=auto;orthogonalLoop=1;fontSize=11;endArrow=block;endFill=0;endSize=8;strokeWidth=3;shadow=0;labelBackgroundColor=none;edgeStyle=orthogonalEdgeStyle;strokeColor=#B20000;fillColor=#e51400;exitX=0.5;exitY=1;exitDx=0;exitDy=0;" edge="1" parent="WIyWlLk6GJQsqaUBKTNV-1" source="WIyWlLk6GJQsqaUBKTNV-3">
          <mxGeometry relative="1" as="geometry">
            <mxPoint x="689.5" y="205" as="sourcePoint" />
            <mxPoint x="689.5" y="300" as="targetPoint" />
          </mxGeometry>
        </mxCell>
        <mxCell id="bDoUtLGQbt2k-Oi-LWWi-31" value="" style="rounded=0;html=1;jettySize=auto;orthogonalLoop=1;fontSize=11;endArrow=block;endFill=0;endSize=8;strokeWidth=3;shadow=0;labelBackgroundColor=none;edgeStyle=orthogonalEdgeStyle;strokeColor=#B20000;fillColor=#e51400;" edge="1" parent="WIyWlLk6GJQsqaUBKTNV-1">
          <mxGeometry relative="1" as="geometry">
            <mxPoint x="689.5" y="370" as="sourcePoint" />
            <mxPoint x="689.5" y="465" as="targetPoint" />
          </mxGeometry>
        </mxCell>
        <mxCell id="bDoUtLGQbt2k-Oi-LWWi-32" value="&lt;span style=&quot;background-color: rgb(255 , 255 , 255)&quot;&gt;&lt;font color=&quot;#0000ff&quot;&gt;ya&lt;/font&gt;&lt;/span&gt;" style="text;html=1;strokeColor=none;fillColor=none;align=center;verticalAlign=middle;whiteSpace=wrap;rounded=0;strokeWidth=3;" vertex="1" parent="WIyWlLk6GJQsqaUBKTNV-1">
          <mxGeometry x="674" y="393" width="40" height="20" as="geometry" />
        </mxCell>
        <mxCell id="bDoUtLGQbt2k-Oi-LWWi-34" value="" style="endArrow=classic;html=1;strokeColor=#B20000;strokeWidth=3;exitX=1;exitY=0.5;exitDx=0;exitDy=0;" edge="1" parent="WIyWlLk6GJQsqaUBKTNV-1" source="WIyWlLk6GJQsqaUBKTNV-10">
          <mxGeometry width="50" height="50" relative="1" as="geometry">
            <mxPoint x="770" y="320" as="sourcePoint" />
            <mxPoint x="740" y="190" as="targetPoint" />
            <Array as="points">
              <mxPoint x="790" y="335" />
              <mxPoint x="790" y="190" />
            </Array>
          </mxGeometry>
        </mxCell>
        <mxCell id="bDoUtLGQbt2k-Oi-LWWi-35" value="&lt;span style=&quot;background-color: rgb(255 , 255 , 255)&quot;&gt;&lt;font color=&quot;#0000ff&quot;&gt;Tidak&lt;/font&gt;&lt;/span&gt;" style="text;html=1;strokeColor=none;fillColor=none;align=center;verticalAlign=middle;whiteSpace=wrap;rounded=0;strokeWidth=3;" vertex="1" parent="WIyWlLk6GJQsqaUBKTNV-1">
          <mxGeometry x="770" y="230" width="40" height="20" as="geometry" />
        </mxCell>
        <mxCell id="bDoUtLGQbt2k-Oi-LWWi-37" value="&lt;span style=&quot;color: rgb(255 , 255 , 255)&quot;&gt;Apakah Ph &amp;gt; 9.0-9.5?&lt;/span&gt;" style="rhombus;whiteSpace=wrap;html=1;shadow=0;fontFamily=Helvetica;fontSize=12;align=center;strokeWidth=1;spacing=6;spacingTop=-4;fontColor=#000000;fillColor=#6A00FF;gradientColor=#0000CC;strokeColor=#0000CC;" vertex="1" parent="WIyWlLk6GJQsqaUBKTNV-1">
          <mxGeometry x="621" y="620" width="140" height="70" as="geometry" />
        </mxCell>
        <mxCell id="bDoUtLGQbt2k-Oi-LWWi-38" value="" style="rounded=0;html=1;jettySize=auto;orthogonalLoop=1;fontSize=11;endArrow=block;endFill=0;endSize=8;strokeWidth=3;shadow=0;labelBackgroundColor=none;edgeStyle=orthogonalEdgeStyle;strokeColor=#B20000;fillColor=#e51400;" edge="1" parent="WIyWlLk6GJQsqaUBKTNV-1">
          <mxGeometry relative="1" as="geometry">
            <mxPoint x="689.5" y="526" as="sourcePoint" />
            <mxPoint x="689.5" y="621" as="targetPoint" />
          </mxGeometry>
        </mxCell>
        <mxCell id="bDoUtLGQbt2k-Oi-LWWi-39" value="Mengirimkan Pesan ke dlm aplikasi" style="rounded=0;whiteSpace=wrap;html=1;fillColor=#6a00ff;strokeColor=#3700CC;fontColor=#ffffff;gradientColor=#0000CC;" vertex="1" parent="WIyWlLk6GJQsqaUBKTNV-1">
          <mxGeometry x="860" y="626.5" width="200" height="60" as="geometry" />
        </mxCell>
        <mxCell id="bDoUtLGQbt2k-Oi-LWWi-41" value="Start" style="rounded=1;whiteSpace=wrap;html=1;fontSize=12;glass=0;strokeWidth=1;shadow=0;fillColor=#6a00ff;strokeColor=#3700CC;fontColor=#ffffff;gradientColor=#000099;" vertex="1" parent="WIyWlLk6GJQsqaUBKTNV-1">
          <mxGeometry x="565" y="1070" width="90" height="30" as="geometry" />
        </mxCell>
        <mxCell id="bDoUtLGQbt2k-Oi-LWWi-42" value="&lt;span style=&quot;color: rgb(255 , 255 , 255)&quot;&gt;Apakah suhu=30C ?&lt;/span&gt;" style="rhombus;whiteSpace=wrap;html=1;shadow=0;fontFamily=Helvetica;fontSize=12;align=center;strokeWidth=1;spacing=6;spacingTop=-4;fontColor=#000000;fillColor=#6A00FF;gradientColor=#0000CC;strokeColor=#0000CC;" vertex="1" parent="WIyWlLk6GJQsqaUBKTNV-1">
          <mxGeometry x="540" y="1185" width="140" height="70" as="geometry" />
        </mxCell>
        <mxCell id="bDoUtLGQbt2k-Oi-LWWi-44" value="" style="rounded=0;html=1;jettySize=auto;orthogonalLoop=1;fontSize=11;endArrow=block;endFill=0;endSize=8;strokeWidth=3;shadow=0;labelBackgroundColor=none;edgeStyle=orthogonalEdgeStyle;strokeColor=#B20000;fillColor=#e51400;exitX=0.5;exitY=1;exitDx=0;exitDy=0;" edge="1" parent="WIyWlLk6GJQsqaUBKTNV-1">
          <mxGeometry relative="1" as="geometry">
            <mxPoint x="609.5" y="1100" as="sourcePoint" />
            <mxPoint x="609.5" y="1184" as="targetPoint" />
            <Array as="points">
              <mxPoint x="609.5" y="1150" />
            </Array>
          </mxGeometry>
        </mxCell>
        <mxCell id="bDoUtLGQbt2k-Oi-LWWi-45" value="Verikasi Terbuka" style="rounded=0;whiteSpace=wrap;html=1;fillColor=#6a00ff;strokeColor=#3700CC;fontColor=#ffffff;gradientColor=#0000CC;" vertex="1" parent="WIyWlLk6GJQsqaUBKTNV-1">
          <mxGeometry x="550" y="1350" width="120" height="60" as="geometry" />
        </mxCell>
        <mxCell id="bDoUtLGQbt2k-Oi-LWWi-46" value="" style="rounded=0;html=1;jettySize=auto;orthogonalLoop=1;fontSize=11;endArrow=block;endFill=0;endSize=8;strokeWidth=3;shadow=0;labelBackgroundColor=none;edgeStyle=orthogonalEdgeStyle;strokeColor=#B20000;fillColor=#e51400;" edge="1" parent="WIyWlLk6GJQsqaUBKTNV-1">
          <mxGeometry relative="1" as="geometry">
            <mxPoint x="609.5" y="1255.5" as="sourcePoint" />
            <mxPoint x="609.5" y="1350.5" as="targetPoint" />
          </mxGeometry>
        </mxCell>
        <mxCell id="bDoUtLGQbt2k-Oi-LWWi-47" value="" style="endArrow=classic;html=1;strokeColor=#B20000;strokeWidth=3;exitX=1;exitY=0.5;exitDx=0;exitDy=0;" edge="1" parent="WIyWlLk6GJQsqaUBKTNV-1">
          <mxGeometry width="50" height="50" relative="1" as="geometry">
            <mxPoint x="675" y="1220" as="sourcePoint" />
            <mxPoint x="655" y="1075" as="targetPoint" />
            <Array as="points">
              <mxPoint x="705" y="1220" />
              <mxPoint x="705" y="1075" />
            </Array>
          </mxGeometry>
        </mxCell>
        <mxCell id="bDoUtLGQbt2k-Oi-LWWi-48" value="" style="rounded=0;html=1;jettySize=auto;orthogonalLoop=1;fontSize=11;endArrow=block;endFill=0;endSize=8;strokeWidth=3;shadow=0;labelBackgroundColor=none;edgeStyle=orthogonalEdgeStyle;strokeColor=#B20000;fillColor=#e51400;" edge="1" parent="WIyWlLk6GJQsqaUBKTNV-1">
          <mxGeometry relative="1" as="geometry">
            <mxPoint x="609.5" y="1410" as="sourcePoint" />
            <mxPoint x="609.5" y="1505" as="targetPoint" />
          </mxGeometry>
        </mxCell>
        <mxCell id="bDoUtLGQbt2k-Oi-LWWi-49" value="&lt;font color=&quot;#ffffff&quot;&gt;Apakah kadar air &amp;lt; 9%?&lt;/font&gt;" style="rhombus;whiteSpace=wrap;html=1;shadow=0;fontFamily=Helvetica;fontSize=12;align=center;strokeWidth=1;spacing=6;spacingTop=-4;fontColor=#000000;fillColor=#6A00FF;gradientColor=#0000CC;strokeColor=#0000CC;" vertex="1" parent="WIyWlLk6GJQsqaUBKTNV-1">
          <mxGeometry x="540" y="1506" width="140" height="70" as="geometry" />
        </mxCell>
        <mxCell id="bDoUtLGQbt2k-Oi-LWWi-50" value="Mengirimkan Pesan ke telegram" style="rounded=0;whiteSpace=wrap;html=1;fillColor=#6a00ff;strokeColor=#3700CC;fontColor=#ffffff;gradientColor=#0000CC;" vertex="1" parent="WIyWlLk6GJQsqaUBKTNV-1">
          <mxGeometry x="550" y="1671" width="120" height="60" as="geometry" />
        </mxCell>
        <mxCell id="bDoUtLGQbt2k-Oi-LWWi-51" value="" style="rounded=0;html=1;jettySize=auto;orthogonalLoop=1;fontSize=11;endArrow=block;endFill=0;endSize=8;strokeWidth=3;shadow=0;labelBackgroundColor=none;edgeStyle=orthogonalEdgeStyle;strokeColor=#B20000;fillColor=#e51400;" edge="1" parent="WIyWlLk6GJQsqaUBKTNV-1">
          <mxGeometry relative="1" as="geometry">
            <mxPoint x="609.5" y="1577" as="sourcePoint" />
            <mxPoint x="609.5" y="1672" as="targetPoint" />
          </mxGeometry>
        </mxCell>
        <mxCell id="bDoUtLGQbt2k-Oi-LWWi-52" value="Start" style="rounded=1;whiteSpace=wrap;html=1;fontSize=12;glass=0;strokeWidth=1;shadow=0;fillColor=#6a00ff;strokeColor=#3700CC;fontColor=#ffffff;gradientColor=#000099;" vertex="1" parent="WIyWlLk6GJQsqaUBKTNV-1">
          <mxGeometry x="320" y="1850" width="90" height="30" as="geometry" />
        </mxCell>
        <mxCell id="bDoUtLGQbt2k-Oi-LWWi-53" value="&lt;font color=&quot;#ffffff&quot;&gt;Apakah Kualitas air Keruh&lt;/font&gt;" style="rhombus;whiteSpace=wrap;html=1;shadow=0;fontFamily=Helvetica;fontSize=12;align=center;strokeWidth=1;spacing=6;spacingTop=-4;fontColor=#000000;fillColor=#6A00FF;gradientColor=#0000CC;strokeColor=#0000CC;" vertex="1" parent="WIyWlLk6GJQsqaUBKTNV-1">
          <mxGeometry x="210" y="1590" width="140" height="70" as="geometry" />
        </mxCell>
        <mxCell id="bDoUtLGQbt2k-Oi-LWWi-54" value="" style="rounded=0;html=1;jettySize=auto;orthogonalLoop=1;fontSize=11;endArrow=block;endFill=0;endSize=8;strokeWidth=3;shadow=0;labelBackgroundColor=none;edgeStyle=orthogonalEdgeStyle;strokeColor=#B20000;fillColor=#e51400;" edge="1" parent="WIyWlLk6GJQsqaUBKTNV-1">
          <mxGeometry relative="1" as="geometry">
            <mxPoint x="761" y="655" as="sourcePoint" />
            <mxPoint x="861" y="655" as="targetPoint" />
            <Array as="points">
              <mxPoint x="861" y="655" />
            </Array>
          </mxGeometry>
        </mxCell>
        <mxCell id="bDoUtLGQbt2k-Oi-LWWi-56" value="&lt;span style=&quot;background-color: rgb(255 , 255 , 255)&quot;&gt;&lt;font color=&quot;#0000ff&quot;&gt;ya&lt;/font&gt;&lt;/span&gt;" style="text;html=1;strokeColor=none;fillColor=none;align=center;verticalAlign=middle;whiteSpace=wrap;rounded=0;strokeWidth=3;" vertex="1" parent="WIyWlLk6GJQsqaUBKTNV-1">
          <mxGeometry x="780" y="626.5" width="40" height="20" as="geometry" />
        </mxCell>
        <mxCell id="bDoUtLGQbt2k-Oi-LWWi-57" value="User Memasukkan Suhu , &lt;br&gt;Ph, Turbidy" style="shape=parallelogram;html=1;strokeWidth=2;perimeter=parallelogramPerimeter;whiteSpace=wrap;rounded=1;arcSize=12;size=0.23;fillColor=#6A00FF;gradientColor=#0000CC;" vertex="1" parent="WIyWlLk6GJQsqaUBKTNV-1">
          <mxGeometry x="890" y="910" width="200" height="40" as="geometry" />
        </mxCell>
        <mxCell id="bDoUtLGQbt2k-Oi-LWWi-59" value="" style="endArrow=classic;html=1;strokeColor=#B20000;strokeWidth=3;exitX=1;exitY=0.75;exitDx=0;exitDy=0;" edge="1" parent="WIyWlLk6GJQsqaUBKTNV-1" source="bDoUtLGQbt2k-Oi-LWWi-57" target="bDoUtLGQbt2k-Oi-LWWi-37">
          <mxGeometry width="50" height="50" relative="1" as="geometry">
            <mxPoint x="1010" y="895" as="sourcePoint" />
            <mxPoint x="684" y="750" as="targetPoint" />
            <Array as="points">
              <mxPoint x="1120" y="937" />
              <mxPoint x="1120" y="830" />
              <mxPoint x="1120" y="760" />
              <mxPoint x="914" y="760" />
              <mxPoint x="692" y="760" />
            </Array>
          </mxGeometry>
        </mxCell>
        <mxCell id="bDoUtLGQbt2k-Oi-LWWi-60" value="&lt;span style=&quot;color: rgb(255 , 255 , 255)&quot;&gt;Apakah suhu,pH air sudah sesuai?&lt;/span&gt;" style="rhombus;whiteSpace=wrap;html=1;shadow=0;fontFamily=Helvetica;fontSize=12;align=center;strokeWidth=1;spacing=6;spacingTop=-4;fontColor=#000000;fillColor=#6A00FF;gradientColor=#0000CC;strokeColor=#0000CC;" vertex="1" parent="WIyWlLk6GJQsqaUBKTNV-1">
          <mxGeometry x="740" y="810" width="140" height="70" as="geometry" />
        </mxCell>
        <mxCell id="bDoUtLGQbt2k-Oi-LWWi-61" value="" style="endArrow=classic;html=1;strokeColor=#B20000;strokeWidth=3;exitX=1;exitY=0.5;exitDx=0;exitDy=0;entryX=0.602;entryY=-0.005;entryDx=0;entryDy=0;entryPerimeter=0;" edge="1" parent="WIyWlLk6GJQsqaUBKTNV-1" source="bDoUtLGQbt2k-Oi-LWWi-60" target="bDoUtLGQbt2k-Oi-LWWi-57">
          <mxGeometry width="50" height="50" relative="1" as="geometry">
            <mxPoint x="880" y="830" as="sourcePoint" />
            <mxPoint x="1000" y="910" as="targetPoint" />
            <Array as="points">
              <mxPoint x="1010" y="845" />
            </Array>
          </mxGeometry>
        </mxCell>
        <mxCell id="bDoUtLGQbt2k-Oi-LWWi-62" value="LCD Menampikan &lt;br&gt;Suhu ,&lt;br&gt;&amp;nbsp;Ph air" style="shape=parallelogram;html=1;strokeWidth=2;perimeter=parallelogramPerimeter;whiteSpace=wrap;rounded=1;arcSize=12;size=0.23;fillColor=#6A00FF;gradientColor=#0000CC;" vertex="1" parent="WIyWlLk6GJQsqaUBKTNV-1">
          <mxGeometry x="476" y="810" width="155" height="95" as="geometry" />
        </mxCell>
        <mxCell id="bDoUtLGQbt2k-Oi-LWWi-63" value="" style="endArrow=classic;html=1;strokeColor=#B20000;strokeWidth=3;entryX=0;entryY=0.5;entryDx=0;entryDy=0;" edge="1" parent="WIyWlLk6GJQsqaUBKTNV-1" target="bDoUtLGQbt2k-Oi-LWWi-60">
          <mxGeometry width="50" height="50" relative="1" as="geometry">
            <mxPoint x="621" y="845" as="sourcePoint" />
            <mxPoint x="660" y="810" as="targetPoint" />
            <Array as="points">
              <mxPoint x="670" y="845" />
            </Array>
          </mxGeometry>
        </mxCell>
      </root>
    </mxGraphModel>
  </diagram>
</mxfile>
